<svg xmlns="http://www.w3.org/2000/svg" xmlns:xlink="http://www.w3.org/1999/xlink" viewBox="0 0 1200 800"><defs><style>.cls-1{fill:#d30065;}.cls-2{fill:#ff0089;}.cls-3{fill:url(#linear-gradient);}.cls-4{fill:#e6007a;}.cls-5{fill:#fff;}.cls-6{fill:url(#linear-gradient-2);}</style><linearGradient id="linear-gradient" x1="457.59" y1="423.42" x2="463.89" y2="62.52" gradientTransform="translate(313.41 -256.64) rotate(45.76)" gradientUnits="userSpaceOnUse"><stop offset="0" stop-color="#fff" stop-opacity="0.3"/><stop offset="0.42" stop-color="#ff98d0" stop-opacity="0.18"/><stop offset="0.96" stop-color="#ff0089" stop-opacity="0"/></linearGradient><linearGradient id="linear-gradient-2" x1="730.06" y1="655.4" x2="629.28" y2="218.89" gradientTransform="matrix(1, 0, 0, 1, 0, 0)" xlink:href="#linear-gradient"/></defs><g id="DOT"><path class="cls-1" d="M544.62,498.43c1.44-.36,2.85-.78,4.26-1.2,1.19-.35,2.38-.69,3.55-1.07,1.4-.47,2.76-1,4.12-1.51,1.12-.43,2.26-.83,3.36-1.29,1.36-.57,2.67-1.21,4-1.83,1.05-.5,2.12-1,3.14-1.5,1.33-.69,2.61-1.45,3.9-2.19,1-.56,1.95-1.08,2.89-1.67,1.32-.83,2.58-1.74,3.86-2.63.84-.59,1.72-1.14,2.54-1.76,1.39-1,2.71-2.18,4-3.3.65-.56,1.34-1.07,2-1.64,1.93-1.74,3.8-3.56,5.59-5.48l51.67-53.07c-1.79,1.93-3.66,3.75-5.59,5.49-.65.57-1.34,1.09-2,1.65-1.32,1.12-2.63,2.24-4,3.28-.83.62-1.7,1.18-2.55,1.77-1.27.89-2.54,1.8-3.86,2.63-.94.59-1.93,1.11-2.89,1.67-1.29.74-2.56,1.5-3.89,2.19-1,.53-2.1,1-3.15,1.5-1.32.62-2.64,1.25-4,1.82-1.1.47-2.24.87-3.37,1.3-1.36.52-2.72,1-4.12,1.5-1.16.39-2.36.73-3.55,1.08-1.41.42-2.81.83-4.25,1.2-1.23.31-2.48.58-3.73.85-1.45.32-2.9.64-4.38.91-2,.37-4.13.72-6.24,1l-.59.09c-2.45.31-4.94.54-7.46.73l-2,.13c-2.12.12-4.26.21-6.42.25-.49,0-1,0-1.46,0-2.57,0-5.18,0-7.81-.12l-1.93-.1q-3.25-.17-6.55-.45l-1.93-.16c-2.7-.27-5.41-.58-8.15-1l-1.71-.27q-3.4-.49-6.86-1.13l-2.37-.44c-2.74-.53-5.48-1.1-8.25-1.75l-.31-.06c-2.87-.67-5.75-1.43-8.65-2.22l-2.42-.68q-3.49-1-7-2.1l-2-.61q-4.36-1.41-8.77-3l-2-.74q-3.46-1.27-6.94-2.67l-3-1.21q-3.48-1.43-7-3c-.75-.33-1.5-.64-2.24-1q-4.56-2-9.14-4.27l-2.07-1c-2.39-1.19-4.78-2.4-7.17-3.66l-3-1.61c-2.19-1.17-4.37-2.38-6.56-3.61-.94-.54-1.89-1.06-2.84-1.61-3-1.72-5.95-3.48-8.93-5.31l-.25-.15q-4.57-2.82-9.14-5.83c-.92-.6-1.85-1.23-2.77-1.85-2.18-1.45-4.35-2.94-6.52-4.45-1-.7-2-1.4-3-2.11q-3.5-2.47-6.95-5.06c-.73-.54-1.46-1.06-2.18-1.61q-4.49-3.39-8.94-6.94c-.69-.55-1.38-1.12-2.07-1.68q-3.47-2.81-6.89-5.69c-1-.81-1.93-1.64-2.9-2.47-2.09-1.8-4.18-3.64-6.27-5.5-.89-.8-1.79-1.59-2.68-2.4-2.91-2.64-5.79-5.31-8.66-8.06q-4.66-4.47-9.14-9c-1-1-1.95-2.06-2.94-3.08-2-2-3.93-4.06-5.83-6.11-1.14-1.24-2.23-2.48-3.35-3.72-1.69-1.87-3.4-3.73-5-5.61-1.17-1.34-2.29-2.7-3.44-4.05-1.53-1.8-3.08-3.59-4.57-5.4-1.15-1.4-2.26-2.82-3.38-4.23-1.43-1.77-2.86-3.54-4.24-5.33-1.12-1.44-2.19-2.89-3.28-4.34-1.33-1.77-2.67-3.53-3.95-5.3-1.08-1.48-2.11-3-3.15-4.45-1.24-1.75-2.49-3.5-3.69-5.26-1-1.51-2-3-3-4.52-1.21-1.84-2.43-3.67-3.59-5.5-.49-.76-1-1.52-1.43-2.28q-2.24-3.57-4.35-7.14c-.41-.69-.83-1.37-1.23-2.06q-2.57-4.4-5-8.79c-.34-.61-.66-1.23-1-1.84-1.3-2.42-2.57-4.84-3.79-7.26-.41-.79-.81-1.58-1.2-2.38q-2.21-4.41-4.24-8.83c-.1-.2-.18-.4-.27-.6-1.26-2.77-2.46-5.52-3.62-8.27l-1-2.41q-1.56-3.8-3-7.58c-.17-.44-.34-.87-.5-1.31-1.08-2.89-2.09-5.78-3.05-8.66-.24-.73-.48-1.46-.71-2.19-.76-2.33-1.47-4.66-2.15-7-.19-.67-.4-1.34-.59-2-.8-2.83-1.55-5.66-2.23-8.46-.14-.57-.26-1.13-.39-1.7-.54-2.32-1.05-4.64-1.51-6.94-.15-.74-.3-1.49-.44-2.24-.53-2.77-1-5.53-1.41-8.26-.05-.31-.08-.6-.12-.91q-.54-3.78-.91-7.52c-.1-.91-.16-1.81-.24-2.71-.16-1.89-.3-3.78-.4-5.64,0-1-.09-2-.13-3q-.09-2.74-.09-5.46c0-.9,0-1.8,0-2.69,0-2.24.13-4.45.27-6.65,0-.41,0-.82.06-1.23q.27-3.87.77-7.65c.09-.72.21-1.43.32-2.16q.39-2.69.88-5.33c.17-.87.35-1.73.54-2.59.34-1.61.72-3.21,1.13-4.8.21-.83.43-1.67.66-2.49.49-1.73,1-3.43,1.6-5.11.2-.61.39-1.23.6-1.83.81-2.25,1.68-4.47,2.64-6.63.2-.45.43-.89.63-1.33.78-1.71,1.6-3.39,2.48-5,.37-.71.77-1.4,1.17-2.1.77-1.37,1.58-2.73,2.42-4.06.45-.71.91-1.42,1.38-2.12.9-1.34,1.86-2.65,2.83-3.95.45-.59.88-1.19,1.34-1.77,1.46-1.84,3-3.64,4.59-5.37l-51.67,53.07c-1.61,1.72-3.12,3.52-4.58,5.36-.47.58-.9,1.18-1.34,1.78-1,1.29-1.93,2.6-2.84,4-.47.69-.92,1.4-1.37,2.11-.85,1.33-1.65,2.69-2.43,4.06-.39.7-.79,1.39-1.17,2.1-.88,1.65-1.69,3.33-2.48,5-.2.45-.43.88-.63,1.33q-1.42,3.26-2.63,6.63c-.22.6-.4,1.22-.61,1.83-.57,1.68-1.11,3.38-1.6,5.11-.23.83-.44,1.66-.66,2.49-.41,1.59-.79,3.19-1.13,4.81-.18.86-.37,1.72-.53,2.59-.34,1.76-.63,3.54-.89,5.34-.1.71-.23,1.42-.32,2.14q-.48,3.78-.77,7.65c0,.41,0,.83-.06,1.23-.13,2.2-.23,4.42-.26,6.66,0,.88,0,1.78,0,2.68,0,1.81,0,3.63.1,5.47,0,1,.07,1.95.13,2.94.09,1.87.23,3.75.39,5.64.08.91.15,1.81.24,2.71q.38,3.74.92,7.53c0,.3.07.6.11.9,0,0,0,.09,0,.14.4,2.68.87,5.4,1.39,8.12.14.75.3,1.5.45,2.25q.69,3.45,1.5,6.93c.14.57.26,1.13.4,1.7q1,4.22,2.23,8.46c.19.67.39,1.35.59,2,.67,2.31,1.39,4.62,2.14,7,.24.74.47,1.47.72,2.21,1,2.87,2,5.76,3,8.65.16.44.34.89.51,1.33.64,1.7,1.29,3.4,2,5.11.32.81.68,1.63,1,2.44s.67,1.62,1,2.42q1.73,4.13,3.61,8.27l.27.6q2,4.41,4.24,8.83c.39.8.8,1.59,1.2,2.39,1.23,2.41,2.49,4.83,3.79,7.24l1,1.86q2.4,4.39,5,8.78c.41.69.83,1.38,1.24,2.08q2.12,3.56,4.33,7.11L245,329c.31.48.6,1,.9,1.44.87,1.35,1.8,2.69,2.68,4,1,1.52,2,3,3,4.55,1.19,1.74,2.43,3.49,3.66,5.23,1.06,1.49,2.09,3,3.17,4.48,1.29,1.76,2.62,3.51,3.94,5.27,1.09,1.45,2.17,2.92,3.29,4.37,1.38,1.77,2.8,3.53,4.22,5.3,1.13,1.42,2.25,2.84,3.41,4.25,1.48,1.8,3,3.58,4.53,5.37,1.16,1.36,2.3,2.73,3.48,4.09,1.63,1.86,3.32,3.7,5,5.55,1.14,1.26,2.24,2.52,3.4,3.77,1.89,2,3.85,4.06,5.8,6.08,1,1,2,2.08,3,3.11q4.47,4.56,9.14,9c2.86,2.75,5.75,5.42,8.65,8.06.89.81,1.79,1.6,2.69,2.4,2.08,1.86,4.17,3.7,6.27,5.5l2.9,2.48q3.44,2.89,6.89,5.69l2.06,1.67q4.46,3.56,8.94,6.94c.73.55,1.46,1.07,2.18,1.61q3.47,2.58,6.95,5.06c1,.72,2,1.42,3,2.12,2.16,1.51,4.33,3,6.5,4.43.93.63,1.86,1.26,2.79,1.87,3,2,6.08,3.95,9.13,5.82l.26.15c3,1.83,6,3.59,8.93,5.31.95.55,1.89,1.08,2.84,1.61,2.18,1.23,4.36,2.44,6.54,3.61l3,1.62q3.57,1.88,7.14,3.64c.7.34,1.4.71,2.1,1.05q4.58,2.22,9.12,4.26l2.27,1c2.32,1,4.63,2,6.94,2.95,1,.42,2,.82,3,1.22s1.8.74,2.7,1.08c1.41.55,2.82,1.06,4.24,1.58l2,.74c2.94,1.06,5.86,2.06,8.78,3l2,.61c2.36.74,4.7,1.45,7,2.11l2.4.67c2.89.79,5.78,1.55,8.65,2.22l.34.07c2.76.64,5.49,1.21,8.22,1.74l2.38.44q3.45.63,6.85,1.14l1.71.26.67.1c2.51.34,5,.62,7.48.86l1.93.16q3.3.28,6.55.45l1.93.1c2.64.1,5.24.15,7.82.12.49,0,1,0,1.45,0q3.26-.06,6.43-.25l2-.13q3.78-.27,7.47-.73l.58-.08c1.66-.22,3.31-.46,4.94-.74.44-.08.87-.19,1.31-.27,1.48-.27,2.93-.59,4.38-.9C542.15,499,543.4,498.74,544.62,498.43Z"/><ellipse class="cls-2" cx="460.74" cy="242.97" rx="148.85" ry="253.27" transform="translate(-34.76 403.58) rotate(-45.76)"/><ellipse class="cls-3" cx="460.74" cy="242.97" rx="131.29" ry="223.39" transform="translate(-34.76 403.58) rotate(-45.76)"/><path class="cls-4" d="M296.51,115.07c49.63-53.22,162.29-26.9,251.64,58.81,58.79,56.41,92.83,124.47,95.09,179.6,10.68-58.36-24.08-140.47-93-206.54C461.26,61.54,349,35.3,299.54,88.34c-15.66,16.79-23.12,39.53-23.21,65.45C279.89,139,286.51,125.79,296.51,115.07Z"/><path class="cls-5" d="M403,129.77c21.33,1.67,44.05,14,51,27.59s-4.33,23.55-25.5,22.23c-21.45-1.34-44.85-13.74-52-27.67S381.37,128.09,403,129.77Z"/><path class="cls-5" d="M499.29,317.73c20.71.38,43,11.73,50,25.38s-3.78,24.68-24.33,24.64c-20.83,0-43.74-11.4-50.9-25.39S478.3,317.35,499.29,317.73Z"/><path class="cls-5" d="M338,183.47c.5-20.38,13-30.44,27.76-22.66s26.28,30.25,26,50.48c-.29,20.38-12.53,30.91-27.42,23.33S337.51,204,338,183.47Z"/><path class="cls-5" d="M533.59,284.69c-.23-19.82,10.58-30,24-22.91s24.5,28.57,24.9,48.24c.4,19.82-10.2,30.43-23.75,23.53S533.82,304.65,533.59,284.69Z"/><path class="cls-5" d="M374.72,254.93c7.61-6.67,31.38,5.33,53,26.63,21.49,21.15,33,43.73,25.74,50.59s-30.85-4.65-52.72-26S367.06,261.64,374.72,254.93Z"/><path class="cls-5" d="M473.92,168.09c6.9-6,29,5.85,49.32,26.42s31.16,41.92,24.6,48.15-28.55-5.23-49.06-25.85S467,174.17,473.92,168.09Z"/><path class="cls-2" d="M782.45,165.78c130.61,0,190.47,121.51,133.71,271.36S707.48,708.51,576.87,708.51,386.42,587,443.19,437.14,651.86,165.78,782.45,165.78Z"/><path class="cls-6" d="M772.83,191.19c118.38,0,172.64,110.12,121.19,246s-189.14,246-307.52,246S413.87,573,465.33,437.14,654.46,191.19,772.83,191.19Z"/><path class="cls-1" d="M886.56,201.76,949,256.68c53.23,46.84,67.73,134.71,29.6,235.38C921.8,641.93,769.89,763.43,639.28,763.43c-42.85,0-78.09-13.08-104.09-36l-62.41-54.92c26,22.88,61.24,36,104.09,36,130.61,0,282.52-121.5,339.29-271.37C954.29,336.47,939.79,248.6,886.56,201.76Z"/><path class="cls-4" d="M468,465.62c50.8-134.12,186.76-242.86,303.64-242.86,89.68,0,142,64,138.63,154.39,17.12-106.83-37.12-186-137.46-186-118.37,0-256.06,110.12-307.5,246C446.8,486.05,442.05,531.59,449,569.9,447.85,538.3,453.88,503,468,465.62Z"/><path class="cls-5" d="M712.93,283.16c27.78-6.27,47.81,1.21,44.28,17-3.6,16.13-30.06,34.36-58.62,40.36-28.09,5.91-46.94-2.43-42.57-18.28C660.31,306.71,685.59,289.33,712.93,283.16Z"/><path class="cls-5" d="M653.64,520.55c31-5,52.83,7.24,48.27,27.71-4.66,20.89-34.83,41.81-66.75,46.26-31.34,4.37-51.69-9-46.08-29.32C594.59,545.22,623.23,525.42,653.64,520.55Z"/><path class="cls-5" d="M576.19,376.76c20.57-26.64,45.95-43.93,57.19-39,11.42,5.05,4.2,31.25-16.63,58.9-21.22,28.15-47.89,46.35-59,40.27C546.75,431,555.25,403.89,576.19,376.76Z"/><path class="cls-5" d="M743.25,458.86c21.52-30.82,50-50.34,64.29-44,14.54,6.43,9.22,37.32-12.53,69.48-22.19,32.83-52.33,53.52-66.64,45.72C714.34,522.37,721.29,490.31,743.25,458.86Z"/><path class="cls-5" d="M550,462c16.62-11.39,35.11-1.32,41.52,23.27,6.64,25.5-2.16,56.76-19.89,69s-36.76.05-42.26-26.27C524,502.53,533.35,473.35,550,462Z"/><path class="cls-5" d="M775.6,307.22c16.46-11.29,38-3.44,48.55,18.21,10.89,22.46,5.78,51.06-11.78,63.14s-40,2.4-49.78-20.85C753.16,345.29,759.13,318.51,775.6,307.22Z"/></g></svg>