<svg xmlns="http://www.w3.org/2000/svg" xmlns:xlink="http://www.w3.org/1999/xlink" width="500" zoomAndPan="magnify" viewBox="0 0 375 374.999991" height="500" preserveAspectRatio="xMidYMid meet" version="1.0"><defs><clipPath id="5e2bd709c8"><path d="M 62 108 L 326 108 L 326 283 L 62 283 Z M 62 108 " clip-rule="nonzero"/></clipPath><clipPath id="ad4f41ef8d"><path d="M 15.519531 197.910156 L 277.183594 40.714844 L 359.0625 177.011719 L 97.398438 334.207031 Z M 15.519531 197.910156 " clip-rule="nonzero"/></clipPath><clipPath id="18f4144d5a"><path d="M 15.519531 197.910156 L 277.183594 40.714844 L 359.0625 177.011719 L 97.398438 334.207031 Z M 15.519531 197.910156 " clip-rule="nonzero"/></clipPath></defs><g clip-path="url(#5e2bd709c8)"><g clip-path="url(#ad4f41ef8d)"><g clip-path="url(#18f4144d5a)"><path fill="#ffffff" d="M 122.011719 181.648438 C 123.9375 161.777344 134.917969 143.074219 153.324219 132.015625 C 171.730469 120.957031 193.398438 120.046875 211.847656 127.683594 L 214.628906 128.835938 C 231.613281 135.90625 251.8125 144.308594 272.523438 140.8125 L 281.898438 139.230469 L 259.015625 152.976562 L 234.496094 167.707031 L 146.714844 220.441406 L 122.195312 235.171875 L 99.3125 248.917969 L 105.113281 241.382812 C 117.925781 224.742188 119.992188 202.960938 121.726562 184.648438 Z M 132.367188 245.949219 L 73.945312 281.046875 C 70.960938 282.839844 67.125 282.253906 64.8125 279.65625 C 62.496094 277.058594 62.359375 273.183594 64.480469 270.425781 L 93.640625 232.550781 C 103.835938 219.308594 105.5625 201.410156 107.453125 181.777344 L 107.601562 180.253906 C 109.949219 156.011719 123.363281 133.125 145.867188 119.605469 C 168.371094 106.085938 194.878906 104.988281 217.382812 114.304688 L 218.800781 114.890625 C 237.019531 122.4375 253.632812 129.316406 270.113281 126.535156 L 317.242188 118.578125 C 320.675781 118 324.03125 119.945312 325.238281 123.207031 C 326.445312 126.472656 325.160156 130.132812 322.175781 131.921875 L 263.753906 167.019531 C 272.859375 200.542969 259.136719 237.359375 227.886719 256.132812 C 196.632812 274.90625 157.6875 269.734375 132.367188 245.949219 Z M 145.382812 238.128906 C 166.082031 255.21875 196.113281 258.328125 220.429688 243.71875 C 244.742188 229.113281 256.101562 201.140625 250.738281 174.839844 L 237.320312 182.902344 C 239.164062 201.757812 230.3125 220.894531 212.972656 231.308594 C 195.636719 241.722656 174.585938 240.554688 158.804688 230.070312 Z M 173.234375 221.398438 C 183.425781 225.539062 195.371094 224.992188 205.515625 218.898438 C 215.664062 212.800781 221.753906 202.511719 222.886719 191.570312 Z M 168.234375 156.839844 C 180.957031 149.195312 196.5 150.285156 207.867188 158.367188 L 150.972656 192.546875 C 149.175781 178.710938 155.515625 164.480469 168.234375 156.839844 Z M 160.78125 144.425781 C 139.25 157.363281 130.792969 183.75 139.691406 206.371094 C 140.46875 208.351562 142.082031 209.890625 144.097656 210.578125 C 146.117188 211.261719 148.332031 211.023438 150.15625 209.925781 L 223.597656 165.808594 C 225.421875 164.710938 226.671875 162.867188 227.015625 160.765625 C 227.355469 158.664062 226.753906 156.515625 225.371094 154.898438 C 209.578125 136.421875 182.308594 131.492188 160.78125 144.425781 Z M 160.78125 144.425781 " fill-opacity="1" fill-rule="evenodd"/></g></g></g></svg>