<svg xmlns="http://www.w3.org/2000/svg" xmlns:xlink="http://www.w3.org/1999/xlink" width="500" zoomAndPan="magnify" viewBox="0 0 375 374.999991" height="500" preserveAspectRatio="xMidYMid meet" version="1.0"><path fill="#e521a9" d="M 74.691406 244.121094 C 39.332031 185.949219 43.984375 112.371094 90.484375 65.871094 C 136.894531 19.460938 210.285156 14.738281 268.410156 49.886719 C 304.644531 27.671875 333.160156 19.449219 344.449219 30.738281 C 355.734375 42.023438 347.511719 70.539062 325.296875 106.773438 C 360.445312 164.898438 355.722656 238.285156 309.3125 284.699219 C 262.8125 331.199219 189.238281 335.855469 131.0625 300.492188 C 95.457031 322.097656 67.5 329.980469 56.351562 318.832031 C 45.203125 307.683594 53.085938 279.722656 74.691406 244.121094 Z M 74.691406 244.121094 " fill-opacity="1" fill-rule="nonzero"/><path fill="#e8398e" d="M 86.742188 74.695312 C 35.199219 126.238281 26.109375 231.601562 102.082031 288.742188 C 102.261719 288.875 102.429688 289.023438 102.59375 289.171875 C 103.507812 290.003906 105.058594 291.042969 106.523438 292.039062 C 108.351562 293.285156 110.871094 293.382812 112.664062 292.082031 C 142.839844 270.171875 181.101562 236.949219 215.109375 202.941406 C 248.632812 169.417969 278.480469 129.824219 300.089844 99.835938 C 301.386719 98.039062 301.234375 95.574219 299.691406 93.980469 C 299.027344 93.292969 298.351562 92.609375 297.671875 91.929688 C 243.128906 21.636719 138.34375 23.09375 86.742188 74.695312 Z M 86.742188 74.695312 " fill-opacity="1" fill-rule="nonzero"/><path fill="#e8398e" d="M 304.210938 293.917969 C 344.824219 253.304688 347.054688 175.972656 317.75 120.910156 C 304.398438 166.371094 188.054688 265.109375 135.195312 305.019531 C 180.445312 336.484375 263.804688 334.328125 304.210938 293.917969 Z M 304.210938 293.917969 " fill-opacity="1" fill-rule="nonzero"/><path fill="#242424" d="M 89.695312 81.660156 C 31.890625 136.128906 45.679688 228.757812 101.195312 284.277344 C 101.964844 285.042969 103.433594 286.03125 104.875 286.996094 L 105.054688 287.113281 C 106.898438 288.351562 109.4375 288.433594 111.226562 287.109375 C 140.871094 265.195312 175.648438 232.730469 209.46875 198.910156 C 242.808594 165.570312 273.253906 129.71875 294.953125 100.277344 C 296.273438 98.484375 296.128906 96.007812 294.578125 94.410156 C 293.984375 93.796875 293.382812 93.183594 292.777344 92.578125 C 235.660156 35.464844 153.625 21.425781 89.695312 81.660156 Z M 89.695312 81.660156 " fill-opacity="1" fill-rule="nonzero"/><path fill="#242424" d="M 295.175781 287.519531 C 335.585938 247.109375 342.058594 177.296875 314.527344 124.136719 C 300.621094 168.75 186.398438 266.203125 134.050781 306.164062 C 177.597656 335.992188 254.972656 327.722656 295.175781 287.519531 Z M 295.175781 287.519531 " fill-opacity="1" fill-rule="nonzero"/><path fill="#242424" d="M 93.886719 94.964844 C 42.523438 146.328125 42.523438 229.605469 93.886719 280.96875 C 95.1875 282.269531 96.507812 283.539062 97.847656 284.773438 C 127.710938 262.40625 162.265625 232.28125 197.28125 197.265625 C 231.808594 162.742188 261.578125 128.664062 283.84375 99.089844 C 282.5625 97.695312 281.242188 96.320312 279.890625 94.964844 C 228.527344 43.601562 145.25 43.601562 93.886719 94.964844 Z M 93.886719 94.964844 " fill-opacity="1" fill-rule="nonzero"/><path fill="#242424" d="M 279.890625 280.96875 C 320.316406 240.542969 328.925781 180.347656 305.714844 131.503906 C 290.160156 174.484375 182.871094 266.507812 131.171875 307.144531 C 179.878906 329.914062 239.667969 321.1875 279.890625 280.96875 Z M 279.890625 280.96875 " fill-opacity="1" fill-rule="nonzero"/><path fill="#c900d8" d="M 80.21875 81.296875 C 30.8125 130.707031 22.835938 205.867188 56.3125 263.585938 L 57.492188 265.621094 L 56.234375 267.609375 C 44.230469 286.5625 36.023438 303.152344 32.164062 316.214844 C 30.238281 322.75 29.457031 328.207031 29.71875 332.53125 C 29.976562 336.824219 31.242188 339.753906 33.171875 341.683594 C 35.101562 343.613281 38.03125 344.875 42.324219 345.136719 C 46.648438 345.398438 52.105469 344.617188 58.640625 342.6875 C 71.707031 338.832031 88.292969 330.625 107.246094 318.621094 C 141.191406 297.121094 182.132812 263.820312 222.984375 222.96875 C 263.273438 182.683594 296.21875 142.304688 317.742188 108.636719 C 330.078125 89.34375 338.542969 72.429688 342.5625 59.109375 C 344.570312 52.445312 345.402344 46.878906 345.160156 42.46875 C 344.921875 38.089844 343.652344 35.109375 341.699219 33.15625 C 339.746094 31.203125 336.765625 29.929688 332.386719 29.691406 C 327.976562 29.453125 322.410156 30.285156 315.746094 32.292969 C 302.425781 36.308594 285.511719 44.777344 266.21875 57.113281 L 264.230469 58.386719 L 262.1875 57.207031 C 204.511719 23.945312 129.535156 31.980469 80.21875 81.296875 Z M 48.429688 265.433594 C 14.59375 205.027344 23.351562 127.183594 74.730469 75.808594 C 126.007812 24.527344 203.652344 15.703125 264.011719 49.316406 C 282.789062 37.46875 299.6875 29.027344 313.503906 24.859375 C 320.652344 22.707031 327.175781 21.632812 332.808594 21.941406 C 338.472656 22.25 343.5 23.976562 347.1875 27.664062 C 350.878906 31.355469 352.605469 36.378906 352.914062 42.046875 C 353.222656 47.679688 352.148438 54.203125 349.996094 61.351562 C 345.828125 75.167969 337.386719 92.066406 325.539062 110.84375 C 359.152344 171.199219 350.328125 248.847656 299.046875 300.125 C 247.671875 351.5 169.828125 360.261719 109.421875 326.425781 C 90.988281 337.945312 74.40625 346.128906 60.839844 350.136719 C 53.816406 352.210938 47.402344 353.222656 41.855469 352.886719 C 36.273438 352.550781 31.328125 350.820312 27.679688 347.171875 C 24.035156 343.527344 22.304688 338.582031 21.96875 333 C 21.628906 327.453125 22.644531 321.039062 24.71875 314.015625 C 28.726562 300.449219 36.910156 283.867188 48.429688 265.433594 Z M 116.890625 321.640625 C 173.792969 351.460938 245.738281 342.453125 293.558594 294.636719 C 341.289062 246.90625 350.351562 175.140625 320.730469 118.285156 C 298.859375 151.363281 266.921875 190.015625 228.476562 228.460938 C 189.484375 267.453125 150.28125 299.75 116.890625 321.640625 Z M 116.890625 321.640625 " fill-opacity="1" fill-rule="evenodd"/><path fill="#c900d8" d="M 96.632812 97.710938 C 46.785156 147.558594 46.785156 228.375 96.632812 278.222656 C 97.128906 278.71875 97.628906 279.210938 98.132812 279.699219 C 127.21875 257.671875 160.644531 228.414062 194.539062 194.523438 C 227.945312 161.113281 256.851562 128.15625 278.769531 99.363281 C 278.234375 98.808594 277.691406 98.257812 277.144531 97.710938 C 227.296875 47.863281 146.480469 47.863281 96.632812 97.710938 Z M 91.140625 283.714844 C 38.261719 230.835938 38.261719 145.097656 91.140625 92.21875 C 144.019531 39.339844 229.753906 39.339844 282.636719 92.21875 C 284.027344 93.613281 285.382812 95.027344 286.703125 96.464844 L 288.886719 98.84375 L 286.945312 101.425781 C 264.550781 131.167969 234.660156 165.382812 200.027344 200.011719 C 164.90625 235.136719 130.210938 265.382812 100.175781 287.878906 L 97.59375 289.816406 L 95.21875 287.628906 C 93.839844 286.355469 92.480469 285.050781 91.140625 283.714844 Z M 277.144531 278.222656 C 316.371094 238.996094 324.734375 180.578125 302.210938 133.171875 L 309.222656 129.839844 C 333.113281 180.121094 324.257812 242.089844 282.636719 283.714844 C 241.222656 325.125 179.667969 334.101562 129.527344 310.664062 L 132.8125 303.628906 C 180.09375 325.730469 238.117188 317.253906 277.144531 278.222656 Z M 277.144531 278.222656 " fill-opacity="1" fill-rule="evenodd"/><path fill="#400096" d="M 116.394531 119.960938 C 76.277344 159.0625 76.167969 224.121094 116.292969 265.296875 L 153.40625 233.777344 L 192.726562 196.804688 L 228.769531 159.789062 L 260.714844 122.039062 C 220.589844 80.863281 156.515625 80.863281 116.394531 119.960938 Z M 116.394531 119.960938 " fill-opacity="1" fill-rule="nonzero"/><path fill="#400096" d="M 266.300781 271.601562 C 232.535156 305.015625 183.269531 311.152344 161.328125 288.980469 L 193.429688 261.777344 L 226.210938 230.613281 L 257.238281 198.929688 L 285.5625 165.910156 C 307.503906 188.082031 300.070312 238.183594 266.300781 271.601562 Z M 266.300781 271.601562 " fill-opacity="1" fill-rule="nonzero"/></svg>