<svg xmlns="http://www.w3.org/2000/svg" xmlns:xlink="http://www.w3.org/1999/xlink" width="500" zoomAndPan="magnify" viewBox="0 0 375 374.999991" height="500" preserveAspectRatio="xMidYMid meet" version="1.0"><defs><clipPath id="9e8a76dd84"><path d="M 234 165 L 349.878906 165 L 349.878906 270 L 234 270 Z M 234 165 " clip-rule="nonzero"/></clipPath><clipPath id="a0164d681c"><path d="M 25.128906 0 L 163 0 L 163 328 L 25.128906 328 Z M 25.128906 0 " clip-rule="nonzero"/></clipPath></defs><path fill="#ff007a" d="M 152.480469 85.621094 C 148.429688 85.042969 148.238281 84.847656 150.167969 84.65625 C 153.832031 84.078125 162.324219 84.847656 168.304688 86.199219 C 182.199219 89.480469 194.738281 97.96875 208.054688 112.828125 L 211.527344 116.878906 L 216.542969 116.109375 C 237.960938 112.632812 259.960938 115.335938 278.292969 123.824219 C 283.308594 126.140625 291.21875 130.773438 292.183594 131.929688 C 292.570312 132.316406 293.148438 134.824219 293.535156 137.332031 C 294.886719 146.402344 294.308594 153.15625 291.414062 158.363281 C 289.867188 161.257812 289.867188 162.03125 290.832031 164.539062 C 291.605469 166.46875 293.921875 167.820312 296.042969 167.820312 C 300.675781 167.820312 305.5 160.488281 307.8125 150.261719 L 308.777344 146.207031 L 310.515625 148.136719 C 320.355469 159.136719 328.074219 174.378906 329.230469 185.183594 L 329.617188 188.078125 L 327.882812 185.570312 C 324.988281 181.132812 322.285156 178.238281 318.621094 175.730469 C 312.058594 171.292969 305.113281 169.941406 286.78125 168.976562 C 270.1875 168.011719 260.730469 166.660156 251.46875 163.574219 C 235.648438 158.363281 227.542969 151.609375 208.824219 126.71875 C 200.527344 115.722656 195.320312 109.742188 190.109375 104.722656 C 178.722656 93.726562 167.339844 87.9375 152.480469 85.621094 Z M 152.480469 85.621094 " fill-opacity="1" fill-rule="nonzero"/><path fill="#ff007a" d="M 296.234375 110.125 C 296.621094 102.792969 297.585938 97.96875 299.710938 93.53125 C 300.480469 91.796875 301.253906 90.253906 301.445312 90.253906 C 301.640625 90.253906 301.253906 91.601562 300.675781 93.144531 C 299.128906 97.390625 298.9375 103.371094 299.902344 110.125 C 301.253906 118.808594 301.832031 119.964844 311.09375 129.421875 C 315.339844 133.859375 320.355469 139.453125 322.285156 141.769531 L 325.566406 146.015625 L 322.285156 142.929688 C 318.234375 139.070312 308.972656 131.738281 306.847656 130.773438 C 305.5 130 305.304688 130 304.339844 130.964844 C 303.570312 131.738281 303.375 132.894531 303.375 138.488281 C 303.183594 147.171875 302.023438 152.574219 299.128906 158.171875 C 297.585938 161.066406 297.394531 160.488281 298.746094 157.207031 C 299.710938 154.699219 299.902344 153.539062 299.902344 145.242188 C 299.902344 128.457031 297.972656 124.40625 286.203125 117.652344 C 283.308594 115.914062 278.292969 113.40625 275.398438 112.054688 C 272.308594 110.703125 269.992188 109.546875 270.1875 109.546875 C 270.574219 109.160156 281.957031 112.441406 286.394531 114.371094 C 293.148438 117.074219 294.308594 117.265625 295.078125 117.074219 C 295.65625 116.492188 296.042969 114.949219 296.234375 110.125 Z M 296.234375 110.125 " fill-opacity="1" fill-rule="nonzero"/><path fill="#ff007a" d="M 160.394531 138.875 C 152.289062 127.683594 147.078125 110.320312 148.238281 97.390625 L 148.621094 93.339844 L 150.550781 93.726562 C 154.027344 94.304688 160.007812 96.621094 162.902344 98.355469 C 170.621094 102.988281 174.09375 109.355469 177.375 125.175781 C 178.339844 129.808594 179.6875 135.210938 180.269531 136.945312 C 181.234375 139.839844 184.898438 146.59375 187.984375 150.839844 C 190.109375 153.925781 188.757812 155.46875 183.933594 155.085938 C 176.601562 154.3125 166.761719 147.558594 160.394531 138.875 Z M 160.394531 138.875 " fill-opacity="1" fill-rule="nonzero"/><g clip-path="url(#9e8a76dd84)"><path fill="#ff007a" d="M 286.394531 222.808594 C 248.191406 207.375 234.683594 194.058594 234.683594 171.484375 C 234.683594 168.203125 234.875 165.503906 234.875 165.503906 C 235.066406 165.503906 236.417969 166.660156 238.15625 168.011719 C 245.875 174.1875 254.558594 176.886719 278.675781 180.359375 C 292.761719 182.484375 300.867188 184.027344 308.199219 186.535156 C 331.546875 194.253906 346.019531 210.074219 349.492188 231.492188 C 350.457031 237.667969 349.878906 249.4375 348.335938 255.613281 C 346.984375 260.4375 343.125 269.3125 342.160156 269.503906 C 341.96875 269.503906 341.582031 268.539062 341.582031 266.996094 C 341.195312 258.890625 337.144531 251.175781 330.390625 245.191406 C 322.285156 238.246094 311.867188 233.035156 286.394531 222.808594 Z M 286.394531 222.808594 " fill-opacity="1" fill-rule="nonzero"/></g><path fill="#ff007a" d="M 259.382812 229.175781 C 258.996094 226.285156 258.03125 222.617188 257.453125 221.074219 L 256.488281 218.179688 L 258.222656 220.300781 C 260.730469 223.195312 262.660156 226.667969 264.398438 231.492188 C 265.75 235.160156 265.75 236.316406 265.75 242.296875 C 265.75 248.085938 265.554688 249.4375 264.398438 252.71875 C 262.46875 257.925781 260.152344 261.59375 256.292969 265.644531 C 249.347656 272.785156 240.277344 276.644531 227.351562 278.378906 C 225.035156 278.574219 218.472656 279.152344 212.683594 279.539062 C 198.214844 280.308594 188.566406 281.855469 179.882812 284.941406 C 178.722656 285.328125 177.566406 285.710938 177.375 285.519531 C 176.988281 285.132812 182.96875 281.660156 187.792969 279.34375 C 194.546875 276.066406 201.492188 274.328125 216.738281 271.628906 C 224.261719 270.46875 231.980469 268.925781 233.910156 268.152344 C 253.011719 262.171875 262.46875 247.316406 259.382812 229.175781 Z M 259.382812 229.175781 " fill-opacity="1" fill-rule="nonzero"/><path fill="#ff007a" d="M 276.941406 260.242188 C 271.921875 249.246094 270.765625 238.824219 273.46875 228.984375 C 273.851562 228.019531 274.238281 227.054688 274.625 227.054688 C 275.011719 227.054688 276.167969 227.632812 277.328125 228.40625 C 279.640625 229.949219 284.464844 232.652344 296.816406 239.402344 C 312.445312 247.894531 321.320312 254.453125 327.496094 261.980469 C 332.898438 268.539062 336.179688 276.066406 337.722656 285.328125 C 338.6875 290.535156 338.109375 303.078125 336.757812 308.289062 C 332.511719 324.6875 322.863281 337.808594 308.777344 345.335938 C 306.65625 346.492188 304.917969 347.265625 304.726562 347.265625 C 304.535156 347.265625 305.304688 345.335938 306.464844 343.019531 C 311.09375 333.179688 311.671875 323.722656 308.199219 313.113281 C 306.078125 306.550781 301.640625 298.640625 292.761719 285.328125 C 282.148438 269.890625 279.640625 265.839844 276.941406 260.242188 Z M 276.941406 260.242188 " fill-opacity="1" fill-rule="nonzero"/><path fill="#ff007a" d="M 133.1875 319.285156 C 147.464844 307.324219 165.023438 298.832031 181.234375 296.132812 C 188.179688 294.972656 199.757812 295.359375 206.125 297.097656 C 216.351562 299.796875 225.613281 305.585938 230.4375 312.726562 C 235.066406 319.671875 237.191406 325.652344 239.3125 338.96875 C 240.085938 344.175781 241.050781 349.578125 241.242188 350.738281 C 242.785156 357.683594 245.875 363.085938 249.734375 365.980469 C 255.714844 370.417969 266.132812 370.613281 276.363281 366.753906 C 278.097656 366.171875 279.640625 365.59375 279.640625 365.789062 C 280.027344 366.171875 274.816406 369.648438 271.34375 371.382812 C 266.519531 373.890625 262.660156 374.664062 257.453125 374.664062 C 248.191406 374.664062 240.277344 369.839844 233.910156 360.191406 C 232.558594 358.261719 229.859375 352.667969 227.542969 347.457031 C 220.789062 331.828125 217.316406 327.195312 209.40625 321.988281 C 202.457031 317.550781 193.582031 316.585938 186.828125 319.863281 C 177.953125 324.109375 175.636719 335.496094 181.8125 342.441406 C 184.320312 345.335938 188.949219 347.648438 192.808594 348.230469 C 199.949219 349.195312 206.125 343.597656 206.125 336.457031 C 206.125 331.828125 204.386719 329.125 199.757812 327.003906 C 193.582031 324.304688 186.828125 327.390625 187.019531 333.371094 C 187.019531 335.878906 188.179688 337.421875 190.6875 338.582031 C 192.230469 339.351562 192.230469 339.351562 191.074219 339.160156 C 185.476562 338.003906 184.128906 331.054688 188.566406 326.617188 C 193.96875 321.214844 205.351562 323.53125 209.210938 331.054688 C 210.753906 334.144531 210.949219 340.316406 209.597656 344.175781 C 206.316406 352.667969 197.054688 357.105469 187.601562 354.597656 C 181.234375 352.859375 178.53125 351.125 170.8125 343.210938 C 157.304688 329.320312 152.097656 326.617188 132.800781 323.722656 L 129.132812 323.144531 Z M 133.1875 319.285156 " fill-opacity="1" fill-rule="nonzero"/><g clip-path="url(#a0164d681c)"><path fill="#ff007a" d="M 31.691406 8.828125 C 76.648438 63.433594 145.921875 148.332031 149.394531 152.960938 C 152.289062 156.820312 151.132812 160.488281 146.308594 163.1875 C 143.605469 164.730469 138.011719 166.273438 135.308594 166.273438 C 132.222656 166.273438 128.554688 164.730469 126.046875 162.222656 C 124.308594 160.488281 116.785156 149.488281 99.804688 123.054688 C 86.875 102.792969 75.878906 86.007812 75.683594 85.8125 C 74.914062 85.429688 74.914062 85.429688 98.453125 127.492188 C 113.3125 153.925781 118.136719 163.382812 118.136719 164.539062 C 118.136719 167.046875 117.363281 168.398438 114.277344 171.871094 C 109.066406 177.660156 106.75 184.21875 105.015625 197.917969 C 103.085938 213.164062 97.875 223.96875 83.015625 242.296875 C 74.332031 253.105469 72.984375 255.035156 70.859375 259.472656 C 68.160156 264.875 67.386719 267.960938 67 274.90625 C 66.613281 282.238281 67.386719 286.871094 69.507812 293.816406 C 71.4375 299.992188 73.5625 304.042969 78.769531 311.953125 C 83.210938 318.898438 85.910156 324.109375 85.910156 326.039062 C 85.910156 327.582031 86.296875 327.582031 93.242188 326.039062 C 109.835938 322.179688 123.539062 315.621094 131.0625 307.515625 C 135.695312 302.5 136.851562 299.796875 136.851562 292.851562 C 136.851562 288.414062 136.660156 287.449219 135.5 284.746094 C 133.570312 280.503906 129.90625 277.03125 121.996094 271.628906 C 111.574219 264.488281 107.136719 258.699219 105.980469 250.980469 C 105.015625 244.421875 106.171875 239.984375 111.960938 227.828125 C 117.941406 215.285156 119.484375 210.074219 120.449219 197.339844 C 121.03125 189.238281 121.996094 185.957031 124.308594 183.449219 C 126.816406 180.746094 128.941406 179.78125 134.921875 179.011719 C 144.761719 177.660156 151.132812 175.152344 156.148438 170.328125 C 160.585938 166.273438 162.515625 162.222656 162.707031 156.242188 L 162.902344 151.804688 L 160.394531 149.101562 C 151.324219 138.683594 25.707031 0.53125 25.128906 0.53125 C 24.9375 0.53125 28.023438 4.195312 31.691406 8.828125 Z M 90.929688 283.203125 C 93.050781 279.539062 91.894531 274.90625 88.417969 272.59375 C 85.140625 270.46875 80.121094 271.433594 80.121094 274.328125 C 80.121094 275.101562 80.507812 275.871094 81.664062 276.257812 C 83.402344 277.222656 83.59375 278.1875 82.246094 280.308594 C 80.894531 282.433594 80.894531 284.363281 82.628906 285.710938 C 85.332031 287.835938 89 286.675781 90.929688 283.203125 Z M 90.929688 283.203125 " fill-opacity="1" fill-rule="evenodd"/></g><path fill="#ff007a" d="M 169.078125 181.710938 C 164.445312 183.0625 160.007812 188.078125 158.65625 193.09375 C 157.882812 196.183594 158.269531 201.777344 159.621094 203.515625 C 161.742188 206.214844 163.671875 206.988281 169.078125 206.988281 C 179.6875 206.988281 188.757812 202.355469 189.722656 196.761719 C 190.6875 192.128906 186.636719 185.761719 181.039062 182.871094 C 178.144531 181.324219 172.164062 180.746094 169.078125 181.710938 Z M 181.425781 191.359375 C 182.96875 189.042969 182.390625 186.535156 179.496094 184.796875 C 174.285156 181.519531 166.375 184.21875 166.375 189.238281 C 166.375 191.746094 170.425781 194.445312 174.285156 194.445312 C 176.792969 194.445312 180.269531 192.902344 181.425781 191.359375 Z M 181.425781 191.359375 " fill-opacity="1" fill-rule="evenodd"/></svg>